<svg width="40" height="40" viewBox="0 0 40 40" fill="none" xmlns="http://www.w3.org/2000/svg">
<rect width="40" height="40" rx="5" fill="#F5F5F5"/>
<path d="M19.9682 23.154C21.7241 23.154 23.1475 21.7306 23.1475 19.9747C23.1475 18.2188 21.7241 16.7953 19.9682 16.7953C18.2123 16.7953 16.7888 18.2188 16.7888 19.9747C16.7888 21.7306 18.2123 23.154 19.9682 23.154Z" fill="#00D8FF"/>
<path d="M19.9683 27.258C15.5033 27.258 11.602 26.7323 8.6823 25.7317C6.78863 25.0857 5.17996 24.2243 4.03363 23.2427C2.81763 22.204 2.17163 21.0703 2.17163 19.9747C2.17163 17.872 4.47696 15.8137 8.34663 14.471C11.5133 13.369 15.6426 12.7547 19.962 12.7547C24.2053 12.7547 28.2776 13.35 31.4253 14.4393C33.2683 15.0727 34.82 15.896 35.922 16.808C37.119 17.8087 37.7523 18.9043 37.7523 19.9747C37.7523 22.1597 35.1746 24.37 31.02 25.7443C28.0813 26.7197 24.1546 27.258 19.9683 27.258ZM19.9683 14.2747C15.8706 14.2747 11.8173 14.87 8.8533 15.9023C5.29396 17.1437 3.69796 18.841 3.69796 19.9747C3.69796 21.1527 5.4143 23.0083 9.1763 24.294C11.9376 25.2377 15.6743 25.738 19.9683 25.738C23.9963 25.738 27.752 25.2313 30.545 24.3003C34.4526 23.002 36.2386 21.1463 36.2386 19.9747C36.2386 19.373 35.7826 18.6637 34.953 17.9733C33.9966 17.1753 32.6033 16.447 30.9376 15.8707C27.942 14.8447 24.047 14.2747 19.9683 14.2747Z" fill="#00D8FF"/>
<path d="M12.7547 35.8207C12.1087 35.8207 11.5387 35.6813 11.0574 35.4027C9.23971 34.3513 8.60638 31.324 9.37271 27.3023C9.99971 24.0027 11.5324 20.1267 13.692 16.3837C15.8137 12.7103 18.3597 9.48033 20.874 7.29533C22.3434 6.01599 23.8317 5.07866 25.1744 4.58466C26.6374 4.04633 27.904 4.04633 28.8287 4.57833C30.7224 5.66766 31.3494 9.01166 30.4627 13.293C29.8357 16.333 28.341 20 26.251 23.629C24.0217 27.4923 21.615 30.6083 19.2907 32.6413C17.7834 33.9587 16.2317 34.9213 14.813 35.4217C14.072 35.6877 13.3754 35.8207 12.7547 35.8207ZM14.3444 16.7637L15.003 17.1437C12.9574 20.6903 11.4437 24.4967 10.861 27.5873C10.158 31.2923 10.8357 33.5217 11.811 34.0853C12.0517 34.2247 12.3684 34.3007 12.7547 34.3007C14.015 34.3007 15.9974 33.5027 18.29 31.5013C20.4877 29.5823 22.7867 26.593 24.9337 22.8753C26.9477 19.3857 28.379 15.877 28.9744 12.9953C29.804 8.96099 29.0884 6.49099 28.0687 5.90199C27.5494 5.60433 26.707 5.64233 25.6937 6.01599C24.522 6.44666 23.1984 7.28899 21.8684 8.448C19.4807 10.5253 17.0424 13.616 15.003 17.15L14.3444 16.7637Z" fill="#00D8FF"/>
<path d="M27.182 35.8397C25.4593 35.8397 23.2743 34.801 20.9943 32.8377C18.4483 30.6463 15.858 27.3847 13.692 23.6417C11.564 19.9683 10.044 16.1493 9.4043 12.875C9.03063 10.9623 8.96096 9.208 9.20163 7.79567C9.46763 6.25667 10.0946 5.161 11.0256 4.62267C12.913 3.527 16.124 4.65434 19.392 7.56134C21.71 9.61967 24.142 12.7483 26.2383 16.371C28.474 20.2343 29.975 23.876 30.5703 26.9033C30.9566 28.8667 31.02 30.6907 30.7476 32.1727C30.4563 33.7497 29.7976 34.8707 28.8476 35.4217C28.3726 35.7003 27.809 35.8397 27.182 35.8397ZM15.0093 22.8817C17.0613 26.4283 19.6073 29.6393 21.9886 31.685C24.845 34.1423 27.1123 34.6743 28.094 34.1043C29.1136 33.5153 29.861 31.1023 29.0883 27.201C28.5183 24.3383 27.0806 20.855 24.9273 17.1373C22.907 13.6477 20.5826 10.652 18.385 8.70134C15.307 5.96534 12.8116 5.351 11.792 5.94C11.2726 6.23767 10.8863 6.99134 10.7026 8.05534C10.4936 9.284 10.557 10.8547 10.899 12.5837C11.507 15.6933 12.9636 19.3477 15.0093 22.8817Z" fill="#00D8FF"/>
</svg>
