<svg width="38" height="38" viewBox="0 0 38 38" fill="none" xmlns="http://www.w3.org/2000/svg">
<path d="M18.9682 22.154C20.7241 22.154 22.1475 20.7306 22.1475 18.9747C22.1475 17.2188 20.7241 15.7953 18.9682 15.7953C17.2123 15.7953 15.7888 17.2188 15.7888 18.9747C15.7888 20.7306 17.2123 22.154 18.9682 22.154Z" fill="#00D8FF"/>
<path d="M18.9683 26.258C14.5033 26.258 10.602 25.7323 7.6823 24.7317C5.78863 24.0857 4.17996 23.2243 3.03363 22.2427C1.81763 21.204 1.17163 20.0703 1.17163 18.9747C1.17163 16.872 3.47696 14.8137 7.34663 13.471C10.5133 12.369 14.6426 11.7547 18.962 11.7547C23.2053 11.7547 27.2776 12.35 30.4253 13.4393C32.2683 14.0727 33.82 14.896 34.922 15.808C36.119 16.8087 36.7523 17.9043 36.7523 18.9747C36.7523 21.1597 34.1746 23.37 30.02 24.7443C27.0813 25.7197 23.1546 26.258 18.9683 26.258ZM18.9683 13.2747C14.8706 13.2747 10.8173 13.87 7.8533 14.9023C4.29396 16.1437 2.69796 17.841 2.69796 18.9747C2.69796 20.1527 4.4143 22.0083 8.1763 23.294C10.9376 24.2377 14.6743 24.738 18.9683 24.738C22.9963 24.738 26.752 24.2313 29.545 23.3003C33.4526 22.002 35.2386 20.1463 35.2386 18.9747C35.2386 18.373 34.7826 17.6637 33.953 16.9733C32.9966 16.1753 31.6033 15.447 29.9376 14.8707C26.942 13.8447 23.047 13.2747 18.9683 13.2747Z" fill="#00D8FF"/>
<path d="M11.7547 34.8207C11.1087 34.8207 10.5387 34.6813 10.0574 34.4027C8.23971 33.3513 7.60638 30.324 8.37271 26.3023C8.99971 23.0027 10.5324 19.1267 12.692 15.3837C14.8137 11.7103 17.3597 8.48033 19.874 6.29533C21.3434 5.01599 22.8317 4.07866 24.1744 3.58466C25.6374 3.04633 26.904 3.04633 27.8287 3.57833C29.7224 4.66766 30.3494 8.01166 29.4627 12.293C28.8357 15.333 27.341 19 25.251 22.629C23.0217 26.4923 20.615 29.6083 18.2907 31.6413C16.7834 32.9587 15.2317 33.9213 13.813 34.4217C13.072 34.6877 12.3754 34.8207 11.7547 34.8207ZM13.3444 15.7637L14.003 16.1437C11.9574 19.6903 10.4437 23.4967 9.86105 26.5873C9.15805 30.2923 9.83571 32.5217 10.811 33.0853C11.0517 33.2247 11.3684 33.3007 11.7547 33.3007C13.015 33.3007 14.9974 32.5027 17.29 30.5013C19.4877 28.5823 21.7867 25.593 23.9337 21.8753C25.9477 18.3857 27.379 14.877 27.9744 11.9953C28.804 7.96099 28.0884 5.49099 27.0687 4.90199C26.5494 4.60433 25.707 4.64233 24.6937 5.01599C23.522 5.44666 22.1984 6.28899 20.8684 7.448C18.4807 9.52533 16.0424 12.616 14.003 16.15L13.3444 15.7637Z" fill="#00D8FF"/>
<path d="M26.182 34.8397C24.4593 34.8397 22.2743 33.801 19.9943 31.8377C17.4483 29.6463 14.858 26.3847 12.692 22.6417C10.564 18.9683 9.04396 15.1493 8.4043 11.875C8.03063 9.96234 7.96096 8.208 8.20163 6.79567C8.46763 5.25667 9.09463 4.161 10.0256 3.62267C11.913 2.527 15.124 3.65434 18.392 6.56134C20.71 8.61967 23.142 11.7483 25.2383 15.371C27.474 19.2343 28.975 22.876 29.5703 25.9033C29.9566 27.8667 30.02 29.6907 29.7476 31.1727C29.4563 32.7497 28.7976 33.8707 27.8476 34.4217C27.3726 34.7003 26.809 34.8397 26.182 34.8397ZM14.0093 21.8817C16.0613 25.4283 18.6073 28.6393 20.9886 30.685C23.845 33.1423 26.1123 33.6743 27.094 33.1043C28.1136 32.5153 28.861 30.1023 28.0883 26.201C27.5183 23.3383 26.0806 19.855 23.9273 16.1373C21.907 12.6477 19.5826 9.652 17.385 7.70134C14.307 4.96534 11.8116 4.351 10.792 4.94C10.2726 5.23767 9.8863 5.99134 9.70263 7.05534C9.49363 8.284 9.55696 9.85467 9.89896 11.5837C10.507 14.6933 11.9636 18.3477 14.0093 21.8817Z" fill="#00D8FF"/>
</svg>
